<?xml version="1.0" encoding="utf-8"?>
<!-- Generator: Adobe Illustrator 18.0.0, SVG Export Plug-In . SVG Version: 6.00 Build 0)  -->
<!DOCTYPE svg PUBLIC "-//W3C//DTD SVG 1.1//EN" "http://www.w3.org/Graphics/SVG/1.1/DTD/svg11.dtd">
<svg version="1.1" id="Layer_1" xmlns="http://www.w3.org/2000/svg" xmlns:xlink="http://www.w3.org/1999/xlink" x="0px" y="0px"
	 viewBox="0 0 253 207.2" enable-background="new 0 0 253 207.2" xml:space="preserve">
<g>
	<path fill="#FFFFFF" d="M54.7,4.5h-9.5V2.7h21v1.8h-9.5v28h-2.1V4.5z"/>
	<path fill="#FFFFFF" d="M71.6,0h2v9.4v4.8c2.3-2.3,4.5-3.9,7.5-3.9c4.5,0,6.6,2.7,6.6,8.3v13.9h-2V18.9c0-4.6-1.4-6.8-5-6.8
		c-2.6,0-4.4,1.4-7.1,4.1v16.4h-2V0z"/>
	<path fill="#FFFFFF" d="M103.1,10.3c5.2,0,8.3,3.7,8.3,10c0,0.5,0,1.1-0.1,1.6H95.7c0.1,5.5,3.3,9.4,8.2,9.4c2.4,0,4.2-0.8,5.8-1.9
		l0.8,1.5c-1.7,1-3.7,2.1-6.8,2.1c-5.6,0-10-4.3-10-11.4S98.2,10.3,103.1,10.3z M109.5,20.4c0-5.6-2.5-8.4-6.4-8.4
		c-3.7,0-7,3.2-7.5,8.4H109.5z"/>
</g>
<g>
	<path fill="#FFFFFF" d="M126.3,117.8h8.1c6,0,9.8,2.3,9.8,7.2c0,3.1-1.8,5.6-5.3,6.5v0.2c4.4,0.6,7.1,3.1,7.1,7.2
		c0,5.7-4.3,8.7-11.1,8.7h-8.6V117.8z M133.5,130.9c6.2,0,8.6-2,8.6-5.9c0-3.8-2.8-5.5-8.3-5.5h-5.4v11.4H133.5z M134.4,145.9
		c5.9,0,9.5-2.2,9.5-7c0-4.3-3.5-6.3-9.5-6.3h-6v13.3H134.4z"/>
	<path fill="#FFFFFF" d="M159.9,125.3c5.2,0,9.8,4.2,9.8,11.4c0,7.2-4.5,11.4-9.8,11.4c-5.2,0-9.7-4.2-9.7-11.4
		C150.2,129.5,154.7,125.3,159.9,125.3z M159.9,146.4c4.4,0,7.7-3.9,7.7-9.6c0-5.7-3.3-9.7-7.7-9.7s-7.6,3.9-7.6,9.7
		C152.3,142.5,155.5,146.4,159.9,146.4z"/>
	<path fill="#FFFFFF" d="M173.1,125.9h2.2l3.9,14.1c0.5,2,1,3.8,1.5,5.8h0.2c0.5-1.9,1-3.8,1.6-5.8l3.9-14.1h2.4l3.9,14.1
		c0.5,2,1.1,3.8,1.6,5.8h0.2c0.5-1.9,1-3.8,1.5-5.8l3.8-14.1h2l-6.2,21.7h-2.6l-3.8-13.5c-0.6-2.1-1-4.1-1.7-6.2h-0.2
		c-0.5,2.1-1,4.2-1.7,6.3l-3.8,13.4h-2.4L173.1,125.9z"/>
	<path fill="#FFFFFF" d="M207.2,115.1h2V145c0,0.9,0.4,1.4,1,1.4c0.2,0,0.4,0,0.8-0.1l0.4,1.6c-0.4,0.1-0.8,0.2-1.4,0.2
		c-1.8,0-2.7-1.1-2.7-3.4V115.1z"/>
</g>
<g>
	<path fill="#FFFFFF" d="M65.3,68.1c0.7,0,3.6-0.5,3.6,0.9c0,1.4-3.3,1.6-4,1.8c-8.3,1.6-13.8,5.3-15.3,5.3c-1.7,0-2-3.7-2-4.8
		c0-4.3,1.5-8.7,4.6-11.7c4.9-4.6,32.2-18.5,38.8-18.7c3.3-0.1,6.1,5.8,6.1,7.1c0,1.8-2.5,5.4-3.5,6.9C77.4,81,74.3,89.1,74.1,91.7
		c-0.2,2.2,0.4,5.9,2.4,5.3c2.5-0.8,6.7-3.1,25.8-33.2c-1-5.7,7.5-16.7,10.3-15.7c4,1.4,2.2,12.7-21,43.1C88.6,95,80.2,107,75.2,107
		c-3.6,0-10.5-5.7-10.3-12.6C65,90.8,66.5,83,83.8,54.4l-0.2-0.2c-8.2,3.9-16.6,7.9-23.6,14l0.2,0.2L65.3,68.1z"/>
	<path fill="#FFFFFF" d="M125.9,92.1c-4.1,5-12.1,13.2-19,13.2c-5.4,0-7.8-6.2-7.8-10.8c0-11.1,11.4-21.9,16.8-21.9
		c1.5,0,4,0.5,4,2.5c0,4.6-9,12.7-12.8,15.3c-0.7,3.7,0.6,5.7,4.8,5.7c4.8,0,9.6-4.8,13.2-7.5L125.9,92.1z M117.2,66.8
		c0-3.7,4.4-7,7.9-7c1.6,0,3,1.2,3,2.8c0,3.6-3.4,8.1-7.3,8.1C118.7,70.7,117.2,69,117.2,66.8z"/>
	<path fill="#FFFFFF" d="M157.2,65.9c-4.3,8.6-5,12-15,11.4c-3.1,4-8.3,11.5-8.3,16.9c0,2,0.6,3.2,2.7,3.2c2.9,0,6.2-2.7,15.7-9.5
		l0.5,4c-5.4,4.9-15.2,14.7-22.9,14.7c-3.5,0-5.7-2.5-5.7-6.1c0-3,1.2-6.5,2.4-9.1l-0.2-0.2l-4.6,3.7l-1-3.5
		c5.5-4.2,10.5-8.8,13.8-14.6c-5.6,0-3.8-0.4-8.6,0.4l1-1.6c4.9-8,5.6-9.5,15.4-9.8c2.7-3.7,4.7-8,10-8c1.2,0,2.9,0.3,2.9,1.7
		c0,1.6-2.6,4.6-3.6,5.9L157.2,65.9z"/>
	<path fill="#FFFFFF" d="M167,97.7c-1.7,1.4-7.6,6.1-9.7,6.1c-2.5,0-7.8-6-8-10.7c-0.4-11.4,23.3-23,33.9-23.3
		c4.2-0.1,5.9,3.3,5.9,4.4c0,1.1-2.4,2-3.2,2.3c1.7,0.7,2.6,1.7,2.6,3.7c0,2.9-7.9,9.3-7.9,13.6c0,1.5,1.4,2.2,2.8,2.2
		c3.8,0,9-4.6,12.9-7.3l0.7,3.4c-3.9,4.5-16.1,14.2-20.6,14.2c-3,0-4.4-2.2-4.4-4.8c0-2.9,2.2-7.7,3.4-10.2l-0.2-0.2L167,97.7z
		 M156,95.4c0.1,0.5,0.5,2.1,1.8,1.8c1.8-0.4,4.6-0.1,22.7-18.3l-0.2-0.2C158.6,85.3,156,90.9,156,95.4z"/>
	<path fill="#FFFFFF" d="M225.4,90.4c-5,5.2-13.6,14.4-21.4,14.4c-6.6,0-8.1-6.5-8.1-11.8c0-9.6,4.1-19.8,10-27.1
		c8-9.9,16.7-18.4,19.6-18.4c1.5,0,1.9,2.2,1.8,3.4c-0.6,8.6-3,16.7-22.8,35.8c-0.8,1.5-1.1,4.1-0.6,6.3c0.8,2.1,2.1,3.9,4.6,3.9
		c5,0,12-5.8,15.7-9.1L225.4,90.4z M206.6,78.2c6.5-6,12.1-14.7,13.7-19.9c-4.5,2.2-9.6,10.4-13.9,19.8L206.6,78.2z"/>
</g>
<polygon fill="#FFFFFF" points="253,207.2 80.1,207.2 0,127.8 0,107.2 4,107.2 4,126.1 81.7,203.2 239,206.2 "/>
</svg>
